<svg xmlns="http://www.w3.org/2000/svg" viewBox="0 0 239.12 71.12">
    <defs>
        <style>.cls-1{fill:#fff;}.cls-2{fill:#fc0;}</style>
    </defs>
    <title>curtncall_logo_with_yellow</title>
    <g id="text">
        <path class="cls-1" d="M320.12,750.79a8.5,8.5,0,0,1-8.52-8.5V722.86a8.52,8.52,0,0,1,14.55-6,8.28,8.28,0,0,1,2.47,6v4.06h-5.57v-4.17a3.11,3.11,0,0,0-3.1-3.1,2.92,2.92,0,0,0-2.17.91,3,3,0,0,0-.89,2.19v19.49A3,3,0,0,0,320,745.3a3,3,0,0,0,2.19-.89,2.92,2.92,0,0,0,.91-2.17v-4.92h5.57v5a8.48,8.48,0,0,1-8.5,8.5Z" transform="translate(-284.63 -696.88)"/>
        <path class="cls-1" d="M341.49,750.73a8.43,8.43,0,0,1-8.5-8.47V714.74h5.26v27.47a2.91,2.91,0,0,0,.91,2.17,3.07,3.07,0,0,0,5.25-2.17V714.74H350v27.52a8.09,8.09,0,0,1-2.5,6A8.31,8.31,0,0,1,341.49,750.73Z" transform="translate(-284.63 -696.88)"/>
        <path class="cls-1" d="M363.25,714.74q4.49,0,6.59,2.47a9,9,0,0,1,1.85,6v5.17a8.32,8.32,0,0,1-2.87,6.39l4,15.54H367l-3.26-13.41h-3.58v13.41h-5.37V714.74Zm3.21,8.58q0-3.11-3.07-3.1h-3.24v11.39h3.24a2.91,2.91,0,0,0,2.17-.91,3,3,0,0,0,.9-2.19Z" transform="translate(-284.63 -696.88)"/>
        <path class="cls-1" d="M381.34,720.13h-5.71v-5.39H392.4v5.39h-5.69v30.2h-5.37Z" transform="translate(-284.63 -696.88)"/>
        <path class="cls-1" d="M402.74,714.71l7.13,23.94V714.71h5.37v35.62h-5.77l-7.39-22.81v22.81h-5.37V714.71Z" transform="translate(-284.63 -696.88)"/>
        <path class="cls-1" d="M428.47,750.79a8.5,8.5,0,0,1-8.52-8.5V722.86a8.52,8.52,0,0,1,14.55-6,8.28,8.28,0,0,1,2.47,6v4.06H431.4v-4.17a3.11,3.11,0,0,0-3.1-3.1,2.92,2.92,0,0,0-2.17.91,3,3,0,0,0-.9,2.19v19.49a3.06,3.06,0,0,0,3.07,3.06,3,3,0,0,0,2.19-.89,2.92,2.92,0,0,0,.91-2.17v-4.92H437v5a8.48,8.48,0,0,1-8.5,8.5Z" transform="translate(-284.63 -696.88)"/>
        <path class="cls-1" d="M446.93,742.15l-1.3,8.18H440l6-35.59h7.38l6,35.59h-5.65l-1.25-8.18Zm2.82-19.26-2,14h4Z" transform="translate(-284.63 -696.88)"/>
        <path class="cls-1" d="M478.59,750.33H464V714.74h5.36V745h9.27Z" transform="translate(-284.63 -696.88)"/>
        <path class="cls-1" d="M496.91,750.33H482.28V714.74h5.37V745h9.26Z" transform="translate(-284.63 -696.88)"/>
    </g>
    <g id="dots">
        <g id="Layer_3" data-name="Layer 3">
            <g id="Layer_102" data-name="Layer 102">
                <path class="cls-1" d="M287.19,702.88a2.56,2.56,0,1,0,2.56,2.56A2.56,2.56,0,0,0,287.19,702.88Z" transform="translate(-284.63 -696.88)"/>
            </g>
            <g id="Layer_101" data-name="Layer 101">
                <path class="cls-2" d="M287.19,708.88a2.56,2.56,0,1,0,2.56,2.56A2.56,2.56,0,0,0,287.19,708.88Z" transform="translate(-284.63 -696.88)"/>
            </g>
            <g id="Layer_100" data-name="Layer 100">
                <path class="cls-1" d="M287.19,714.88a2.56,2.56,0,1,0,2.56,2.56A2.56,2.56,0,0,0,287.19,714.88Z" transform="translate(-284.63 -696.88)"/>
            </g>
            <g id="Layer_99" data-name="Layer 99">
                <path class="cls-2" d="M287.19,720.88a2.56,2.56,0,1,0,2.56,2.56A2.56,2.56,0,0,0,287.19,720.88Z" transform="translate(-284.63 -696.88)"/>
            </g>
            <g id="Layer_98" data-name="Layer 98">
                <path class="cls-1" d="M287.19,726.88a2.56,2.56,0,1,0,2.56,2.56A2.56,2.56,0,0,0,287.19,726.88Z" transform="translate(-284.63 -696.88)"/>
            </g>
            <g id="Layer_97" data-name="Layer 97">
                <path class="cls-2" d="M287.19,732.88a2.56,2.56,0,1,0,2.56,2.56A2.56,2.56,0,0,0,287.19,732.88Z" transform="translate(-284.63 -696.88)"/>
            </g>
            <g id="Layer_96" data-name="Layer 96">
                <path class="cls-1" d="M287.19,738.88a2.56,2.56,0,1,0,2.56,2.56A2.56,2.56,0,0,0,287.19,738.88Z" transform="translate(-284.63 -696.88)"/>
            </g>
            <g id="Layer_95" data-name="Layer 95">
                <path class="cls-2" d="M287.19,744.88a2.56,2.56,0,1,0,2.56,2.56A2.56,2.56,0,0,0,287.19,744.88Z" transform="translate(-284.63 -696.88)"/>
            </g>
            <g id="Layer_94" data-name="Layer 94">
                <path class="cls-1" d="M287.19,750.88a2.56,2.56,0,1,0,2.56,2.56A2.56,2.56,0,0,0,287.19,750.88Z" transform="translate(-284.63 -696.88)"/>
            </g>
            <g id="Layer_93" data-name="Layer 93">
                <path class="cls-2" d="M287.19,756.88a2.56,2.56,0,1,0,2.56,2.56A2.56,2.56,0,0,0,287.19,756.88Z" transform="translate(-284.63 -696.88)"/>
            </g>
            <g id="Layer_92" data-name="Layer 92">
                <path class="cls-2" d="M521.19,702.88a2.56,2.56,0,1,0,2.56,2.56A2.56,2.56,0,0,0,521.19,702.88Z" transform="translate(-284.63 -696.88)"/>
            </g>
            <g id="Layer_91" data-name="Layer 91">
                <path class="cls-1" d="M521.19,708.88a2.56,2.56,0,1,0,2.56,2.56A2.56,2.56,0,0,0,521.19,708.88Z" transform="translate(-284.63 -696.88)"/>
            </g>
            <g id="Layer_90" data-name="Layer 90">
                <path class="cls-2" d="M521.19,714.88a2.56,2.56,0,1,0,2.56,2.56A2.56,2.56,0,0,0,521.19,714.88Z" transform="translate(-284.63 -696.88)"/>
            </g>
            <g id="Layer_89" data-name="Layer 89">
                <path class="cls-1" d="M521.19,720.88a2.56,2.56,0,1,0,2.56,2.56A2.56,2.56,0,0,0,521.19,720.88Z" transform="translate(-284.63 -696.88)"/>
            </g>
            <g id="Layer_88" data-name="Layer 88">
                <path class="cls-2" d="M521.19,726.88a2.56,2.56,0,1,0,2.56,2.56A2.56,2.56,0,0,0,521.19,726.88Z" transform="translate(-284.63 -696.88)"/>
            </g>
            <g id="Layer_87" data-name="Layer 87">
                <path class="cls-1" d="M521.19,732.88a2.56,2.56,0,1,0,2.56,2.56A2.56,2.56,0,0,0,521.19,732.88Z" transform="translate(-284.63 -696.88)"/>
            </g>
            <g id="Layer_86" data-name="Layer 86">
                <path class="cls-2" d="M521.19,738.88a2.56,2.56,0,1,0,2.56,2.56A2.56,2.56,0,0,0,521.19,738.88Z" transform="translate(-284.63 -696.88)"/>
            </g>
            <g id="Layer_85" data-name="Layer 85">
                <path class="cls-1" d="M521.19,744.88a2.56,2.56,0,1,0,2.56,2.56A2.56,2.56,0,0,0,521.19,744.88Z" transform="translate(-284.63 -696.88)"/>
            </g>
            <g id="Layer_84" data-name="Layer 84">
                <path class="cls-2" d="M521.19,750.88a2.56,2.56,0,1,0,2.56,2.56A2.56,2.56,0,0,0,521.19,750.88Z" transform="translate(-284.63 -696.88)"/>
            </g>
            <g id="Layer_83" data-name="Layer 83">
                <path class="cls-1" d="M521.19,756.88a2.56,2.56,0,1,0,2.56,2.56A2.56,2.56,0,0,0,521.19,756.88Z" transform="translate(-284.63 -696.88)"/>
            </g>
            <g id="Layer_82" data-name="Layer 82">
                <path class="cls-2" d="M287.19,696.88a2.56,2.56,0,1,0,2.56,2.56A2.56,2.56,0,0,0,287.19,696.88Z" transform="translate(-284.63 -696.88)"/>
            </g>
            <g id="Layer_81" data-name="Layer 81">
                <path class="cls-1" d="M293.19,696.88a2.56,2.56,0,1,0,2.56,2.56A2.56,2.56,0,0,0,293.19,696.88Z" transform="translate(-284.63 -696.88)"/>
            </g>
            <g id="Layer_80" data-name="Layer 80">
                <path class="cls-2" d="M299.19,696.88a2.56,2.56,0,1,0,2.56,2.56A2.56,2.56,0,0,0,299.19,696.88Z" transform="translate(-284.63 -696.88)"/>
            </g>
            <g id="Layer_79" data-name="Layer 79">
                <path class="cls-1" d="M305.19,696.88a2.56,2.56,0,1,0,2.56,2.56A2.56,2.56,0,0,0,305.19,696.88Z" transform="translate(-284.63 -696.88)"/>
            </g>
            <g id="Layer_78" data-name="Layer 78">
                <path class="cls-2" d="M311.19,696.88a2.56,2.56,0,1,0,2.56,2.56A2.56,2.56,0,0,0,311.19,696.88Z" transform="translate(-284.63 -696.88)"/>
            </g>
            <g id="Layer_77" data-name="Layer 77">
                <path class="cls-1" d="M317.19,696.88a2.56,2.56,0,1,0,2.56,2.56A2.56,2.56,0,0,0,317.19,696.88Z" transform="translate(-284.63 -696.88)"/>
            </g>
            <g id="Layer_76" data-name="Layer 76">
                <path class="cls-2" d="M323.19,696.88a2.56,2.56,0,1,0,2.56,2.56A2.56,2.56,0,0,0,323.19,696.88Z" transform="translate(-284.63 -696.88)"/>
            </g>
            <g id="Layer_75" data-name="Layer 75">
                <path class="cls-1" d="M329.19,696.88a2.56,2.56,0,1,0,2.56,2.56A2.56,2.56,0,0,0,329.19,696.88Z" transform="translate(-284.63 -696.88)"/>
            </g>
            <g id="Layer_74" data-name="Layer 74">
                <path class="cls-2" d="M335.19,696.88a2.56,2.56,0,1,0,2.56,2.56A2.56,2.56,0,0,0,335.19,696.88Z" transform="translate(-284.63 -696.88)"/>
            </g>
            <g id="Layer_73" data-name="Layer 73">
                <path class="cls-1" d="M341.19,696.88a2.56,2.56,0,1,0,2.56,2.56A2.56,2.56,0,0,0,341.19,696.88Z" transform="translate(-284.63 -696.88)"/>
            </g>
            <g id="Layer_72" data-name="Layer 72">
                <path class="cls-2" d="M347.19,696.88a2.56,2.56,0,1,0,2.56,2.56A2.56,2.56,0,0,0,347.19,696.88Z" transform="translate(-284.63 -696.88)"/>
            </g>
            <g id="Layer_71" data-name="Layer 71">
                <path class="cls-1" d="M353.19,696.88a2.56,2.56,0,1,0,2.56,2.56A2.56,2.56,0,0,0,353.19,696.88Z" transform="translate(-284.63 -696.88)"/>
            </g>
            <g id="Layer_70" data-name="Layer 70">
                <path class="cls-2" d="M359.19,696.88a2.56,2.56,0,1,0,2.56,2.56A2.56,2.56,0,0,0,359.19,696.88Z" transform="translate(-284.63 -696.88)"/>
            </g>
            <g id="Layer_69" data-name="Layer 69">
                <path class="cls-1" d="M365.19,696.88a2.56,2.56,0,1,0,2.56,2.56A2.56,2.56,0,0,0,365.19,696.88Z" transform="translate(-284.63 -696.88)"/>
            </g>
            <g id="Layer_68" data-name="Layer 68">
                <path class="cls-2" d="M371.19,696.88a2.56,2.56,0,1,0,2.56,2.56A2.56,2.56,0,0,0,371.19,696.88Z" transform="translate(-284.63 -696.88)"/>
            </g>
            <g id="Layer_67" data-name="Layer 67">
                <path class="cls-1" d="M377.19,696.88a2.56,2.56,0,1,0,2.56,2.56A2.56,2.56,0,0,0,377.19,696.88Z" transform="translate(-284.63 -696.88)"/>
            </g>
            <g id="Layer_66" data-name="Layer 66">
                <path class="cls-2" d="M383.19,696.88a2.56,2.56,0,1,0,2.56,2.56A2.56,2.56,0,0,0,383.19,696.88Z" transform="translate(-284.63 -696.88)"/>
            </g>
            <g id="Layer_65" data-name="Layer 65">
                <path class="cls-1" d="M389.19,696.88a2.56,2.56,0,1,0,2.56,2.56A2.56,2.56,0,0,0,389.19,696.88Z" transform="translate(-284.63 -696.88)"/>
            </g>
            <g id="Layer_64" data-name="Layer 64">
                <path class="cls-2" d="M395.19,696.88a2.56,2.56,0,1,0,2.56,2.56A2.56,2.56,0,0,0,395.19,696.88Z" transform="translate(-284.63 -696.88)"/>
            </g>
            <g id="Layer_63" data-name="Layer 63">
                <path class="cls-1" d="M401.19,696.88a2.56,2.56,0,1,0,2.56,2.56A2.56,2.56,0,0,0,401.19,696.88Z" transform="translate(-284.63 -696.88)"/>
            </g>
            <g id="Layer_62" data-name="Layer 62">
                <path class="cls-2" d="M407.19,696.88a2.56,2.56,0,1,0,2.56,2.56A2.56,2.56,0,0,0,407.19,696.88Z" transform="translate(-284.63 -696.88)"/>
            </g>
            <g id="Layer_61" data-name="Layer 61">
                <path class="cls-1" d="M413.19,696.88a2.56,2.56,0,1,0,2.56,2.56A2.56,2.56,0,0,0,413.19,696.88Z" transform="translate(-284.63 -696.88)"/>
            </g>
            <g id="Layer_60" data-name="Layer 60">
                <path class="cls-2" d="M419.19,696.88a2.56,2.56,0,1,0,2.56,2.56A2.56,2.56,0,0,0,419.19,696.88Z" transform="translate(-284.63 -696.88)"/>
            </g>
            <g id="Layer_59" data-name="Layer 59">
                <path class="cls-1" d="M425.19,696.88a2.56,2.56,0,1,0,2.56,2.56A2.56,2.56,0,0,0,425.19,696.88Z" transform="translate(-284.63 -696.88)"/>
            </g>
            <g id="Layer_58" data-name="Layer 58">
                <path class="cls-2" d="M431.19,696.88a2.56,2.56,0,1,0,2.56,2.56A2.56,2.56,0,0,0,431.19,696.88Z" transform="translate(-284.63 -696.88)"/>
            </g>
            <g id="Layer_57" data-name="Layer 57">
                <path class="cls-1" d="M437.19,696.88a2.56,2.56,0,1,0,2.56,2.56A2.56,2.56,0,0,0,437.19,696.88Z" transform="translate(-284.63 -696.88)"/>
            </g>
            <g id="Layer_56" data-name="Layer 56">
                <path class="cls-2" d="M443.19,696.88a2.56,2.56,0,1,0,2.56,2.56A2.56,2.56,0,0,0,443.19,696.88Z" transform="translate(-284.63 -696.88)"/>
            </g>
            <g id="Layer_55" data-name="Layer 55">
                <path class="cls-1" d="M449.19,696.88a2.56,2.56,0,1,0,2.56,2.56A2.56,2.56,0,0,0,449.19,696.88Z" transform="translate(-284.63 -696.88)"/>
            </g>
            <g id="Layer_54" data-name="Layer 54">
                <path class="cls-2" d="M455.19,696.88a2.56,2.56,0,1,0,2.56,2.56A2.56,2.56,0,0,0,455.19,696.88Z" transform="translate(-284.63 -696.88)"/>
            </g>
            <g id="Layer_53" data-name="Layer 53">
                <path class="cls-1" d="M461.19,696.88a2.56,2.56,0,1,0,2.56,2.56A2.56,2.56,0,0,0,461.19,696.88Z" transform="translate(-284.63 -696.88)"/>
            </g>
            <g id="Layer_52" data-name="Layer 52">
                <path class="cls-2" d="M467.19,696.88a2.56,2.56,0,1,0,2.56,2.56A2.56,2.56,0,0,0,467.19,696.88Z" transform="translate(-284.63 -696.88)"/>
            </g>
            <g id="Layer_51" data-name="Layer 51">
                <path class="cls-1" d="M473.19,696.88a2.56,2.56,0,1,0,2.56,2.56A2.56,2.56,0,0,0,473.19,696.88Z" transform="translate(-284.63 -696.88)"/>
            </g>
            <g id="Layer_50" data-name="Layer 50">
                <path class="cls-2" d="M479.19,696.88a2.56,2.56,0,1,0,2.56,2.56A2.56,2.56,0,0,0,479.19,696.88Z" transform="translate(-284.63 -696.88)"/>
            </g>
            <g id="Layer_49" data-name="Layer 49">
                <path class="cls-1" d="M485.19,696.88a2.56,2.56,0,1,0,2.56,2.56A2.56,2.56,0,0,0,485.19,696.88Z" transform="translate(-284.63 -696.88)"/>
            </g>
            <g id="Layer_48" data-name="Layer 48">
                <path class="cls-2" d="M491.19,696.88a2.56,2.56,0,1,0,2.56,2.56A2.56,2.56,0,0,0,491.19,696.88Z" transform="translate(-284.63 -696.88)"/>
            </g>
            <g id="Layer_47" data-name="Layer 47">
                <path class="cls-1" d="M497.19,696.88a2.56,2.56,0,1,0,2.56,2.56A2.56,2.56,0,0,0,497.19,696.88Z" transform="translate(-284.63 -696.88)"/>
            </g>
            <g id="Layer_46" data-name="Layer 46">
                <path class="cls-2" d="M503.19,696.88a2.56,2.56,0,1,0,2.56,2.56A2.56,2.56,0,0,0,503.19,696.88Z" transform="translate(-284.63 -696.88)"/>
            </g>
            <g id="Layer_45" data-name="Layer 45">
                <path class="cls-1" d="M509.19,696.88a2.56,2.56,0,1,0,2.56,2.56A2.56,2.56,0,0,0,509.19,696.88Z" transform="translate(-284.63 -696.88)"/>
            </g>
            <g id="Layer_44" data-name="Layer 44">
                <path class="cls-2" d="M515.19,696.88a2.56,2.56,0,1,0,2.56,2.56A2.56,2.56,0,0,0,515.19,696.88Z" transform="translate(-284.63 -696.88)"/>
            </g>
            <g id="Layer_43" data-name="Layer 43">
                <path class="cls-1" d="M521.19,702a2.56,2.56,0,1,0-2.56-2.56A2.56,2.56,0,0,0,521.19,702Z" transform="translate(-284.63 -696.88)"/>
            </g>
            <g id="Layer_42" data-name="Layer 42">
                <path class="cls-1" d="M287.19,762.88a2.56,2.56,0,1,0,2.56,2.56A2.56,2.56,0,0,0,287.19,762.88Z" transform="translate(-284.63 -696.88)"/>
            </g>
            <g id="Layer_41" data-name="Layer 41">
                <path class="cls-2" d="M293.19,762.88a2.56,2.56,0,1,0,2.56,2.56A2.56,2.56,0,0,0,293.19,762.88Z" transform="translate(-284.63 -696.88)"/>
            </g>
            <g id="Layer_40" data-name="Layer 40">
                <path class="cls-1" d="M299.19,762.88a2.56,2.56,0,1,0,2.56,2.56A2.56,2.56,0,0,0,299.19,762.88Z" transform="translate(-284.63 -696.88)"/>
            </g>
            <g id="Layer_39" data-name="Layer 39">
                <path class="cls-2" d="M305.19,762.88a2.56,2.56,0,1,0,2.56,2.56A2.56,2.56,0,0,0,305.19,762.88Z" transform="translate(-284.63 -696.88)"/>
            </g>
            <g id="Layer_38" data-name="Layer 38">
                <path class="cls-1" d="M311.19,762.88a2.56,2.56,0,1,0,2.56,2.56A2.56,2.56,0,0,0,311.19,762.88Z" transform="translate(-284.63 -696.88)"/>
            </g>
            <g id="Layer_37" data-name="Layer 37">
                <path class="cls-2" d="M317.19,762.88a2.56,2.56,0,1,0,2.56,2.56A2.56,2.56,0,0,0,317.19,762.88Z" transform="translate(-284.63 -696.88)"/>
            </g>
            <g id="Layer_36" data-name="Layer 36">
                <path class="cls-1" d="M323.19,762.88a2.56,2.56,0,1,0,2.56,2.56A2.56,2.56,0,0,0,323.19,762.88Z" transform="translate(-284.63 -696.88)"/>
            </g>
            <g id="Layer_35" data-name="Layer 35">
                <path class="cls-2" d="M329.19,762.88a2.56,2.56,0,1,0,2.56,2.56A2.56,2.56,0,0,0,329.19,762.88Z" transform="translate(-284.63 -696.88)"/>
            </g>
            <g id="Layer_34" data-name="Layer 34">
                <path class="cls-1" d="M335.19,762.88a2.56,2.56,0,1,0,2.56,2.56A2.56,2.56,0,0,0,335.19,762.88Z" transform="translate(-284.63 -696.88)"/>
            </g>
            <g id="Layer_33" data-name="Layer 33">
                <path class="cls-2" d="M341.19,762.88a2.56,2.56,0,1,0,2.56,2.56A2.56,2.56,0,0,0,341.19,762.88Z" transform="translate(-284.63 -696.88)"/>
            </g>
            <g id="Layer_32" data-name="Layer 32">
                <path class="cls-1" d="M347.19,762.88a2.56,2.56,0,1,0,2.56,2.56A2.56,2.56,0,0,0,347.19,762.88Z" transform="translate(-284.63 -696.88)"/>
            </g>
            <g id="Layer_31" data-name="Layer 31">
                <path class="cls-2" d="M353.19,762.88a2.56,2.56,0,1,0,2.56,2.56A2.56,2.56,0,0,0,353.19,762.88Z" transform="translate(-284.63 -696.88)"/>
            </g>
            <g id="Layer_30" data-name="Layer 30">
                <path class="cls-1" d="M359.19,762.88a2.56,2.56,0,1,0,2.56,2.56A2.56,2.56,0,0,0,359.19,762.88Z" transform="translate(-284.63 -696.88)"/>
            </g>
            <g id="Layer_29" data-name="Layer 29">
                <path class="cls-2" d="M365.19,762.88a2.56,2.56,0,1,0,2.56,2.56A2.56,2.56,0,0,0,365.19,762.88Z" transform="translate(-284.63 -696.88)"/>
            </g>
            <g id="Layer_28" data-name="Layer 28">
                <path class="cls-1" d="M371.19,762.88a2.56,2.56,0,1,0,2.56,2.56A2.56,2.56,0,0,0,371.19,762.88Z" transform="translate(-284.63 -696.88)"/>
            </g>
            <g id="Layer_27" data-name="Layer 27">
                <path class="cls-2" d="M377.19,762.88a2.56,2.56,0,1,0,2.56,2.56A2.56,2.56,0,0,0,377.19,762.88Z" transform="translate(-284.63 -696.88)"/>
            </g>
            <g id="Layer_26" data-name="Layer 26">
                <path class="cls-1" d="M383.19,762.88a2.56,2.56,0,1,0,2.56,2.56A2.56,2.56,0,0,0,383.19,762.88Z" transform="translate(-284.63 -696.88)"/>
            </g>
            <g id="Layer_25" data-name="Layer 25">
                <path class="cls-2" d="M389.19,762.88a2.56,2.56,0,1,0,2.56,2.56A2.56,2.56,0,0,0,389.19,762.88Z" transform="translate(-284.63 -696.88)"/>
            </g>
            <g id="Layer_24" data-name="Layer 24">
                <path class="cls-1" d="M395.19,762.88a2.56,2.56,0,1,0,2.56,2.56A2.56,2.56,0,0,0,395.19,762.88Z" transform="translate(-284.63 -696.88)"/>
            </g>
            <g id="Layer_23" data-name="Layer 23">
                <path class="cls-2" d="M401.19,762.88a2.56,2.56,0,1,0,2.56,2.56A2.56,2.56,0,0,0,401.19,762.88Z" transform="translate(-284.63 -696.88)"/>
            </g>
            <g id="Layer_22" data-name="Layer 22">
                <path class="cls-1" d="M407.19,762.88a2.56,2.56,0,1,0,2.56,2.56A2.56,2.56,0,0,0,407.19,762.88Z" transform="translate(-284.63 -696.88)"/>
            </g>
            <g id="Layer_21" data-name="Layer 21">
                <path class="cls-2" d="M413.19,762.88a2.56,2.56,0,1,0,2.56,2.56A2.56,2.56,0,0,0,413.19,762.88Z" transform="translate(-284.63 -696.88)"/>
            </g>
            <g id="Layer_20" data-name="Layer 20">
                <path class="cls-1" d="M419.19,762.88a2.56,2.56,0,1,0,2.56,2.56A2.56,2.56,0,0,0,419.19,762.88Z" transform="translate(-284.63 -696.88)"/>
            </g>
            <g id="Layer_19" data-name="Layer 19">
                <path class="cls-2" d="M425.19,762.88a2.56,2.56,0,1,0,2.56,2.56A2.56,2.56,0,0,0,425.19,762.88Z" transform="translate(-284.63 -696.88)"/>
            </g>
            <g id="Layer_18" data-name="Layer 18">
                <path class="cls-1" d="M431.19,762.88a2.56,2.56,0,1,0,2.56,2.56A2.56,2.56,0,0,0,431.19,762.88Z" transform="translate(-284.63 -696.88)"/>
            </g>
            <g id="Layer_17" data-name="Layer 17">
                <path class="cls-2" d="M437.19,762.88a2.56,2.56,0,1,0,2.56,2.56A2.56,2.56,0,0,0,437.19,762.88Z" transform="translate(-284.63 -696.88)"/>
            </g>
            <g id="Layer_16" data-name="Layer 16">
                <path class="cls-1" d="M443.19,762.88a2.56,2.56,0,1,0,2.56,2.56A2.56,2.56,0,0,0,443.19,762.88Z" transform="translate(-284.63 -696.88)"/>
            </g>
            <g id="Layer_15" data-name="Layer 15">
                <path class="cls-2" d="M449.19,762.88a2.56,2.56,0,1,0,2.56,2.56A2.56,2.56,0,0,0,449.19,762.88Z" transform="translate(-284.63 -696.88)"/>
            </g>
            <g id="Layer_14" data-name="Layer 14">
                <path class="cls-1" d="M455.19,762.88a2.56,2.56,0,1,0,2.56,2.56A2.56,2.56,0,0,0,455.19,762.88Z" transform="translate(-284.63 -696.88)"/>
            </g>
            <g id="Layer_13" data-name="Layer 13">
                <path class="cls-2" d="M461.19,762.88a2.56,2.56,0,1,0,2.56,2.56A2.56,2.56,0,0,0,461.19,762.88Z" transform="translate(-284.63 -696.88)"/>
            </g>
            <g id="Layer_12" data-name="Layer 12">
                <path class="cls-1" d="M467.19,762.88a2.56,2.56,0,1,0,2.56,2.56A2.56,2.56,0,0,0,467.19,762.88Z" transform="translate(-284.63 -696.88)"/>
            </g>
            <g id="Layer_11" data-name="Layer 11">
                <path class="cls-2" d="M473.19,762.88a2.56,2.56,0,1,0,2.56,2.56A2.56,2.56,0,0,0,473.19,762.88Z" transform="translate(-284.63 -696.88)"/>
            </g>
            <g id="Layer_10" data-name="Layer 10">
                <path class="cls-2" d="M485.19,762.88a2.56,2.56,0,1,0,2.56,2.56A2.56,2.56,0,0,0,485.19,762.88Z" transform="translate(-284.63 -696.88)"/>
            </g>
            <g id="Layer_9" data-name="Layer 9">
                <path class="cls-1" d="M491.19,762.88a2.56,2.56,0,1,0,2.56,2.56A2.56,2.56,0,0,0,491.19,762.88Z" transform="translate(-284.63 -696.88)"/>
            </g>
            <g id="Layer_8" data-name="Layer 8">
                <path class="cls-2" d="M497.19,762.88a2.56,2.56,0,1,0,2.56,2.56A2.56,2.56,0,0,0,497.19,762.88Z" transform="translate(-284.63 -696.88)"/>
            </g>
            <g id="Layer_7" data-name="Layer 7">
                <path class="cls-1" d="M503.19,762.88a2.56,2.56,0,1,0,2.56,2.56A2.56,2.56,0,0,0,503.19,762.88Z" transform="translate(-284.63 -696.88)"/>
            </g>
            <g id="Layer_6" data-name="Layer 6">
                <path class="cls-2" d="M509.19,762.88a2.56,2.56,0,1,0,2.56,2.56A2.56,2.56,0,0,0,509.19,762.88Z" transform="translate(-284.63 -696.88)"/>
            </g>
            <g id="Layer_5" data-name="Layer 5">
                <path class="cls-1" d="M515.19,762.88a2.56,2.56,0,1,0,2.56,2.56A2.56,2.56,0,0,0,515.19,762.88Z" transform="translate(-284.63 -696.88)"/>
            </g>
            <g id="Layer_4" data-name="Layer 4">
                <path class="cls-2" d="M521.19,762.88a2.56,2.56,0,1,0,2.56,2.56A2.56,2.56,0,0,0,521.19,762.88Z" transform="translate(-284.63 -696.88)"/>
            </g>
        </g>
    </g>
</svg>